@startuml
package [src] as C_0001387619747296316447 {
package [core] as C_0002278286474666070424 {
package [thread] as C_0001183054535709160710 {
class "NetworkData::LowpanContextInfo" as C_0000683747308386236353
class C_0000683747308386236353 {
__
}
class "Lowpan::Context" as C_0001346570432467457356
class C_0001346570432467457356 {
__
}
class "Lowpan::Lowpan" as C_0001332924320389650839
class C_0001332924320389650839 {
__
}
class "Lowpan::MeshHeader" as C_0001265256160105741077
class C_0001265256160105741077 {
__
}
class "MeshForwarder" as C_0000603590511880671658
class C_0000603590511880671658 {
__
}
class "NetworkData::NetworkData" as C_0000576691251651384823
class C_0000576691251651384823 {
__
}
class "IndirectSender" as C_0000365511659643489006
class C_0000365511659643489006 {
__
}
class "Instance" as C_0002074607423113921391
class C_0002074607423113921391 {
__
}
}
package [common] as C_0000538251318670428019 {
class "Message" as C_0000603837953379726446
class C_0000603837953379726446 {
__
}
class "FrameData" as C_0000970679022985562567
class C_0000970679022985562567 {
__
}
class "FrameBuilder" as C_0001613647999044296420
class C_0001613647999044296420 {
__
}
class "ThreadLinkInfo" as C_0001739458148921928763
class C_0001739458148921928763 {
__
}
}
package [net] as C_0000215011246174653850 {
class "Ip6::Header" as C_0002099165682465547464
class C_0002099165682465547464 {
__
}
class "Ip6::Ip6" as C_0001018498121270593936
class C_0001018498121270593936 {
__
}
class "Ip6::Headers" as C_0000274617637055195381
class C_0000274617637055195381 {
__
}
}
package [coap] as C_0001889813544493651964 {
class "Coap::Message" as C_0002066399530883052289
class C_0002066399530883052289 {
__
}
}
package [instance] as C_0000273137096413401361 {
class "Instance" as C_0002074607423113921391
class C_0002074607423113921391 {
__
}
}
}
}
C_0001332924320389650839 ..> C_0002074607423113921391
C_0001332924320389650839 ..> C_0000970679022985562567
C_0001332924320389650839 ..> C_0000603837953379726446
C_0001332924320389650839 ..> C_0001613647999044296420
C_0001332924320389650839 ..> C_0002099165682465547464
C_0001332924320389650839 ..> C_0001346570432467457356
C_0001265256160105741077 ..> C_0000970679022985562567
C_0001265256160105741077 ..> C_0000603837953379726446
C_0001265256160105741077 ..> C_0001613647999044296420
C_0000603590511880671658 ..> C_0000970679022985562567
C_0000603590511880671658 ..> C_0001739458148921928763
C_0000603590511880671658 ..> C_0000274617637055195381
C_0000603590511880671658 ..> C_0002099165682465547464
C_0000603590511880671658 --> C_0000603837953379726446 : -mSendMessage
C_0000603590511880671658 o-- C_0000365511659643489006 : -mIndirectSender
C_0000603590511880671658 <.. C_0001018498121270593936 : +<<friend>>
C_0000603590511880671658 <.. C_0002074607423113921391 : +<<friend>>
C_0000603837953379726446 ..> C_0002074607423113921391
C_0000603837953379726446 ..> C_0001739458148921928763
C_0001613647999044296420 ..> C_0000603837953379726446
C_0002099165682465547464 ..> C_0000603837953379726446
C_0001018498121270593936 ..> C_0000603837953379726446
C_0001018498121270593936 ..> C_0002099165682465547464
C_0001018498121270593936 <.. C_0002074607423113921391 : +<<friend>>
C_0000274617637055195381 ..> C_0000603837953379726446
C_0000274617637055195381 ..> C_0000970679022985562567
C_0000274617637055195381 ..> C_0002074607423113921391
C_0000274617637055195381 o-- C_0002099165682465547464 : -mIp6Header
C_0000603837953379726446 <|-- C_0002066399530883052289
C_0002074607423113921391 o-- C_0001018498121270593936 : -mIp6
C_0002074607423113921391 o-- C_0001332924320389650839 : -mLowpan
C_0002074607423113921391 o-- C_0000603590511880671658 : -mMeshForwarder

'Generated with clang-uml, version 0.5.1
'LLVM version Ubuntu clang version 16.0.6 (15)
@enduml
